{
  "accessors": [
    {
      "bufferView": 2,
      "componentType": 5126,
      "count": 65532,
      "max": [
        0.885254979133606,
        10.856332778930664,
        2.6815760135650635
      ],
      "min": [
        -1.9728120565414429,
        7.604592800140381,
        -1.1972850561141968
      ],
      "type": "VEC3"
    },
    {
      "bufferView": 2,
      "byteOffset": 786384,
      "componentType": 5126,
      "count": 65532,
      "max": [
        0.9988088011741638,
        0.9999876618385315,
        0.9999698400497437
      ],
      "min": [
        -0.9999803900718689,
        -0.9999540448188782,
        -0.9701671600341797
      ],
      "type": "VEC3"
    },
    {
      "bufferView": 3,
      "componentType": 5126,
      "count": 65532,
      "max": [
        0.8823529481887817,
        0.8392156958580017,
        0.7529411911964417,
        1.0
      ],
      "min": [
        0.0,
        0.0,
        0.0,
        1.0
      ],
      "type": "VEC4"
    },
    {
      "bufferView": 1,
      "componentType": 5126,
      "count": 65532,
      "max": [
        0.8056010007858276,
        0.9381899833679199
      ],
      "min": [
        0.0,
        0.0030189999379217625
      ],
      "type": "VEC2"
    },
    {
      "bufferView": 0,
      "componentType": 5125,
      "count": 348219,
      "type": "SCALAR"
    },
    {
      "bufferView": 2,
      "byteOffset": 1572768,
      "componentType": 5126,
      "count": 65532,
      "max": [
        1.9759440422058105,
        10.968523025512695,
        2.433418035507202
      ],
      "min": [
        -1.268272042274475,
        8.28858757019043,
        -1.2478469610214233
      ],
      "type": "VEC3"
    },
    {
      "bufferView": 2,
      "byteOffset": 2359152,
      "componentType": 5126,
      "count": 65532,
      "max": [
        0.9889869093894958,
        0.9999265670776367,
        0.9928736090660095
      ],
      "min": [
        -0.9999884366989136,
        -0.9819440245628357,
        -0.9964441061019897
      ],
      "type": "VEC3"
    },
    {
      "bufferView": 3,
      "byteOffset": 1048512,
      "componentType": 5126,
      "count": 65532,
      "max": [
        0.8588235378265381,
        0.8078431487083435,
        0.729411780834198,
        1.0
      ],
      "min": [
        0.0,
        0.0,
        0.0,
        1.0
      ],
      "type": "VEC4"
    },
    {
      "bufferView": 1,
      "byteOffset": 524256,
      "componentType": 5126,
      "count": 65532,
      "max": [
        0.9987069964408875,
        0.93265700340271
      ],
      "min": [
        0.13221000134944916,
        0.04698299989104271
      ],
      "type": "VEC2"
    },
    {
      "bufferView": 0,
      "byteOffset": 1392876,
      "componentType": 5125,
      "count": 348882,
      "type": "SCALAR"
    },
    {
      "bufferView": 2,
      "byteOffset": 3145536,
      "componentType": 5126,
      "count": 65532,
      "max": [
        1.979315996170044,
        10.878474235534668,
        2.412846088409424
      ],
      "min": [
        -1.319762945175171,
        8.254232406616211,
        -1.8190300464630127
      ],
      "type": "VEC3"
    },
    {
      "bufferView": 2,
      "byteOffset": 3931920,
      "componentType": 5126,
      "count": 65532,
      "max": [
        0.9998661875724792,
        0.9984119534492493,
        0.9999988675117493
      ],
      "min": [
        -0.9854711294174194,
        -0.9996263384819031,
        -1.0
      ],
      "type": "VEC3"
    },
    {
      "bufferView": 3,
      "byteOffset": 2097024,
      "componentType": 5126,
      "count": 65532,
      "max": [
        0.8352941274642944,
        0.7882353067398071,
        0.6549019813537598,
        1.0
      ],
      "min": [
        0.0,
        0.0,
        0.0,
        1.0
      ],
      "type": "VEC4"
    },
    {
      "bufferView": 1,
      "byteOffset": 1048512,
      "componentType": 5126,
      "count": 65532,
      "max": [
        0.9999979734420776,
        0.9707249999046326
      ],
      "min": [
        0.08627700060606003,
        0.013358999975025654
      ],
      "type": "VEC2"
    },
    {
      "bufferView": 0,
      "byteOffset": 2788404,
      "componentType": 5125,
      "count": 346704,
      "type": "SCALAR"
    },
    {
      "bufferView": 2,
      "byteOffset": 4718304,
      "componentType": 5126,
      "count": 65532,
      "max": [
        2.013827085494995,
        10.89835262298584,
        1.0247609615325928
      ],
      "min": [
        -0.693477988243103,
        7.460620880126953,
        -1.8120249509811401
      ],
      "type": "VEC3"
    },
    {
      "bufferView": 2,
      "byteOffset": 5504688,
      "componentType": 5126,
      "count": 65532,
      "max": [
        0.9999058842658997,
        0.9965224862098694,
        0.9999870657920837
      ],
      "min": [
        -0.9999804496765137,
        -0.9999911785125732,
        -0.9999997019767761
      ],
      "type": "VEC3"
    },
    {
      "bufferView": 3,
      "byteOffset": 3145536,
      "componentType": 5126,
      "count": 65532,
      "max": [
        0.7882353067398071,
        0.7019608020782471,
        0.6627451181411743,
        1.0
      ],
      "min": [
        0.0,
        0.0,
        0.0,
        1.0
      ],
      "type": "VEC4"
    },
    {
      "bufferView": 1,
      "byteOffset": 1572768,
      "componentType": 5126,
      "count": 65532,
      "max": [
        0.999966025352478,
        0.9746149778366089
      ],
      "min": [
        0.0012039999710395932,
        3.899999865097925e-05
      ],
      "type": "VEC2"
    },
    {
      "bufferView": 0,
      "byteOffset": 4175220,
      "componentType": 5125,
      "count": 355575,
      "type": "SCALAR"
    },
    {
      "bufferView": 2,
      "byteOffset": 6291072,
      "componentType": 5126,
      "count": 65532,
      "max": [
        1.9921900033950806,
        10.018698692321777,
        2.6789169311523438
      ],
      "min": [
        -1.4373459815979004,
        7.461383819580078,
        -1.644142985343933
      ],
      "type": "VEC3"
    },
    {
      "bufferView": 2,
      "byteOffset": 7077456,
      "componentType": 5126,
      "count": 65532,
      "max": [
        0.9968326687812805,
        0.9997376203536987,
        0.9999895095825195
      ],
      "min": [
        -0.9981862902641296,
        -0.9999518394470215,
        -0.9977364540100098
      ],
      "type": "VEC3"
    },
    {
      "bufferView": 3,
      "byteOffset": 4194048,
      "componentType": 5126,
      "count": 65532,
      "max": [
        0.8313725590705872,
        0.7803921699523926,
        0.6941176652908325,
        1.0
      ],
      "min": [
        0.0,
        0.0,
        0.0,
        1.0
      ],
      "type": "VEC4"
    },
    {
      "bufferView": 1,
      "byteOffset": 2097024,
      "componentType": 5126,
      "count": 65532,
      "max": [
        0.9944940209388733,
        0.9771379828453064
      ],
      "min": [
        0.009246000088751316,
        0.0010930000571534038
      ],
      "type": "VEC2"
    },
    {
      "bufferView": 0,
      "byteOffset": 5597520,
      "componentType": 5125,
      "count": 356892,
      "type": "SCALAR"
    },
    {
      "bufferView": 2,
      "byteOffset": 7863840,
      "componentType": 5126,
      "count": 65532,
      "max": [
        1.4852449893951416,
        10.41347599029541,
        2.741154909133911
      ],
      "min": [
        -1.9014079570770264,
        7.793858051300049,
        1.1367770433425903
      ],
      "type": "VEC3"
    },
    {
      "bufferView": 2,
      "byteOffset": 8650224,
      "componentType": 5126,
      "count": 65532,
      "max": [
        0.9998675584793091,
        0.9999082088470459,
        0.9999485611915588
      ],
      "min": [
        -0.9999691247940063,
        -0.9999920129776001,
        -0.9999480247497559
      ],
      "type": "VEC3"
    },
    {
      "bufferView": 3,
      "byteOffset": 5242560,
      "componentType": 5126,
      "count": 65532,
      "max": [
        0.886274516582489,
        0.8509804010391235,
        0.7568627595901489,
        1.0
      ],
      "min": [
        0.0,
        0.0,
        0.0,
        1.0
      ],
      "type": "VEC4"
    },
    {
      "bufferView": 1,
      "byteOffset": 2621280,
      "componentType": 5126,
      "count": 65532,
      "max": [
        0.9999570250511169,
        0.9792559742927551
      ],
      "min": [
        0.0,
        0.0003640000068116933
      ],
      "type": "VEC2"
    },
    {
      "bufferView": 0,
      "byteOffset": 7025088,
      "componentType": 5125,
      "count": 350274,
      "type": "SCALAR"
    },
    {
      "bufferView": 2,
      "byteOffset": 9436608,
      "componentType": 5126,
      "count": 65532,
      "max": [
        1.5459810495376587,
        10.13520622253418,
        2.7545979022979736
      ],
      "min": [
        -1.9868799448013306,
        7.622334957122803,
        0.8481749892234802
      ],
      "type": "VEC3"
    },
    {
      "bufferView": 2,
      "byteOffset": 10222992,
      "componentType": 5126,
      "count": 65532,
      "max": [
        0.9999515414237976,
        0.9999454617500305,
        0.9999972581863403
      ],
      "min": [
        -0.9999758005142212,
        -0.9999561905860901,
        -0.9999966621398926
      ],
      "type": "VEC3"
    },
    {
      "bufferView": 3,
      "byteOffset": 6291072,
      "componentType": 5126,
      "count": 65532,
      "max": [
        0.8745098114013672,
        0.8274509906768799,
        0.7372549176216125,
        1.0
      ],
      "min": [
        0.0,
        0.0,
        0.0,
        1.0
      ],
      "type": "VEC4"
    },
    {
      "bufferView": 1,
      "byteOffset": 3145536,
      "componentType": 5126,
      "count": 65532,
      "max": [
        0.9999979734420776,
        0.9857249855995178
      ],
      "min": [
        0.0,
        0.003089000005275011
      ],
      "type": "VEC2"
    },
    {
      "bufferView": 0,
      "byteOffset": 8426184,
      "componentType": 5125,
      "count": 319983,
      "type": "SCALAR"
    },
    {
      "bufferView": 2,
      "byteOffset": 11009376,
      "componentType": 5126,
      "count": 65532,
      "max": [
        1.8807400465011597,
        10.419845581054688,
        2.7503979206085205
      ],
      "min": [
        -0.48380300402641296,
        7.461610794067383,
        0.2453240007162094
      ],
      "type": "VEC3"
    },
    {
      "bufferView": 2,
      "byteOffset": 11795760,
      "componentType": 5126,
      "count": 65532,
      "max": [
        0.9998725652694702,
        0.9998393654823303,
        0.9999891519546509
      ],
      "min": [
        -0.9999678730964661,
        -0.9999968409538269,
        -0.9999688863754272
      ],
      "type": "VEC3"
    },
    {
      "bufferView": 3,
      "byteOffset": 7339584,
      "componentType": 5126,
      "count": 65532,
      "max": [
        0.9098039269447327,
        0.8823529481887817,
        0.8156862854957581,
        1.0
      ],
      "min": [
        0.0,
        0.0,
        0.0,
        1.0
      ],
      "type": "VEC4"
    },
    {
      "bufferView": 1,
      "byteOffset": 3669792,
      "componentType": 5126,
      "count": 65532,
      "max": [
        0.9999470114707947,
        0.98198002576828
      ],
      "min": [
        7.300000288523734e-05,
        0.04233400151133537
      ],
      "type": "VEC2"
    },
    {
      "bufferView": 0,
      "byteOffset": 9706116,
      "componentType": 5125,
      "count": 315330,
      "type": "SCALAR"
    },
    {
      "bufferView": 2,
      "byteOffset": 12582144,
      "componentType": 5126,
      "count": 65532,
      "max": [
        2.0160670280456543,
        10.890743255615234,
        2.7369370460510254
      ],
      "min": [
        -1.9580210447311401,
        7.552608966827393,
        -1.8170000314712524
      ],
      "type": "VEC3"
    },
    {
      "bufferView": 2,
      "byteOffset": 13368528,
      "componentType": 5126,
      "count": 65532,
      "max": [
        0.9999991655349731,
        0.9998935461044312,
        0.9999870657920837
      ],
      "min": [
        -0.9999191761016846,
        -0.9999684691429138,
        -0.9999988079071045
      ],
      "type": "VEC3"
    },
    {
      "bufferView": 3,
      "byteOffset": 8388096,
      "componentType": 5126,
      "count": 65532,
      "max": [
        0.8784313797950745,
        0.8352941274642944,
        0.7254902124404907,
        1.0
      ],
      "min": [
        0.0,
        0.0,
        0.0,
        1.0
      ],
      "type": "VEC4"
    },
    {
      "bufferView": 1,
      "byteOffset": 4194048,
      "componentType": 5126,
      "count": 65532,
      "max": [
        0.9998959898948669,
        0.9837700128555298
      ],
      "min": [
        7.999999979801942e-06,
        0.004904000088572502
      ],
      "type": "VEC2"
    },
    {
      "bufferView": 0,
      "byteOffset": 10967436,
      "componentType": 5125,
      "count": 276912,
      "type": "SCALAR"
    },
    {
      "bufferView": 2,
      "byteOffset": 14154912,
      "componentType": 5126,
      "count": 59067,
      "max": [
        2.0100529193878174,
        10.968045234680176,
        2.754261016845703
      ],
      "min": [
        -1.9806679487228394,
        7.462854862213135,
        -1.8200750350952148
      ],
      "type": "VEC3"
    },
    {
      "bufferView": 2,
      "byteOffset": 14863716,
      "componentType": 5126,
      "count": 59067,
      "max": [
        0.9998472332954407,
        0.9999083876609802,
        0.9999759793281555
      ],
      "min": [
        -0.9999579787254333,
        -0.999980628490448,
        -0.9999995231628418
      ],
      "type": "VEC3"
    },
    {
      "bufferView": 3,
      "byteOffset": 9436608,
      "componentType": 5126,
      "count": 59067,
      "max": [
        0.8745098114013672,
        0.8274509906768799,
        0.7058823704719543,
        1.0
      ],
      "min": [
        0.0,
        0.0,
        0.0,
        1.0
      ],
      "type": "VEC4"
    },
    {
      "bufferView": 1,
      "byteOffset": 4718304,
      "componentType": 5126,
      "count": 59067,
      "max": [
        0.9993969798088074,
        0.9761999845504761
      ],
      "min": [
        0.0,
        0.006862000096589327
      ],
      "type": "VEC2"
    },
    {
      "bufferView": 0,
      "byteOffset": 12075084,
      "componentType": 5125,
      "count": 221226,
      "type": "SCALAR"
    }
  ],
  "asset": {
    "extras": {
      "author": "Dave Green (https://sketchfab.com/greengallery)",
      "license": "CC-BY-4.0 (http://creativecommons.org/licenses/by/4.0/)",
      "source": "https://sketchfab.com/3d-models/north-devon-plain-jug-24d0fe2df423484592b59e96214ee887",
      "title": "North Devon Plain Jug"
    },
    "generator": "Sketchfab-12.66.0",
    "version": "2.0"
  },
  "bufferViews": [
    {
      "buffer": 0,
      "byteLength": 12959988,
      "name": "floatBufferViews",
      "target": 34963
    },
    {
      "buffer": 0,
      "byteLength": 5190840,
      "byteOffset": 12959988,
      "byteStride": 8,
      "name": "floatBufferViews",
      "target": 34962
    },
    {
      "buffer": 0,
      "byteLength": 15572520,
      "byteOffset": 18150828,
      "byteStride": 12,
      "name": "floatBufferViews",
      "target": 34962
    },
    {
      "buffer": 0,
      "byteLength": 10381680,
      "byteOffset": 33723348,
      "byteStride": 16,
      "name": "floatBufferViews",
      "target": 34962
    }
  ],
  "buffers": [
    {
      "byteLength": 44105028,
      "uri": "scene.bin"
    }
  ],
  "materials": [
    {
      "name": "Plain_Jug_Sketchfab",
      "pbrMetallicRoughness": {
        "metallicFactor": 0.0
      }
    }
  ],
  "meshes": [
    {
      "name": "Object_0",
      "primitives": [
        {
          "attributes": {
            "COLOR_0": 2,
            "NORMAL": 1,
            "POSITION": 0,
            "TEXCOORD_0": 3
          },
          "indices": 4,
          "material": 0,
          "mode": 4
        }
      ]
    },
    {
      "name": "Object_1",
      "primitives": [
        {
          "attributes": {
            "COLOR_0": 7,
            "NORMAL": 6,
            "POSITION": 5,
            "TEXCOORD_0": 8
          },
          "indices": 9,
          "material": 0,
          "mode": 4
        }
      ]
    },
    {
      "name": "Object_2",
      "primitives": [
        {
          "attributes": {
            "COLOR_0": 12,
            "NORMAL": 11,
            "POSITION": 10,
            "TEXCOORD_0": 13
          },
          "indices": 14,
          "material": 0,
          "mode": 4
        }
      ]
    },
    {
      "name": "Object_3",
      "primitives": [
        {
          "attributes": {
            "COLOR_0": 17,
            "NORMAL": 16,
            "POSITION": 15,
            "TEXCOORD_0": 18
          },
          "indices": 19,
          "material": 0,
          "mode": 4
        }
      ]
    },
    {
      "name": "Object_4",
      "primitives": [
        {
          "attributes": {
            "COLOR_0": 22,
            "NORMAL": 21,
            "POSITION": 20,
            "TEXCOORD_0": 23
          },
          "indices": 24,
          "material": 0,
          "mode": 4
        }
      ]
    },
    {
      "name": "Object_5",
      "primitives": [
        {
          "attributes": {
            "COLOR_0": 27,
            "NORMAL": 26,
            "POSITION": 25,
            "TEXCOORD_0": 28
          },
          "indices": 29,
          "material": 0,
          "mode": 4
        }
      ]
    },
    {
      "name": "Object_6",
      "primitives": [
        {
          "attributes": {
            "COLOR_0": 32,
            "NORMAL": 31,
            "POSITION": 30,
            "TEXCOORD_0": 33
          },
          "indices": 34,
          "material": 0,
          "mode": 4
        }
      ]
    },
    {
      "name": "Object_7",
      "primitives": [
        {
          "attributes": {
            "COLOR_0": 37,
            "NORMAL": 36,
            "POSITION": 35,
            "TEXCOORD_0": 38
          },
          "indices": 39,
          "material": 0,
          "mode": 4
        }
      ]
    },
    {
      "name": "Object_8",
      "primitives": [
        {
          "attributes": {
            "COLOR_0": 42,
            "NORMAL": 41,
            "POSITION": 40,
            "TEXCOORD_0": 43
          },
          "indices": 44,
          "material": 0,
          "mode": 4
        }
      ]
    },
    {
      "name": "Object_9",
      "primitives": [
        {
          "attributes": {
            "COLOR_0": 47,
            "NORMAL": 46,
            "POSITION": 45,
            "TEXCOORD_0": 48
          },
          "indices": 49,
          "material": 0,
          "mode": 4
        }
      ]
    }
  ],
  "nodes": [
    {
      "children": [
        1
      ],
      "matrix": [
        1.0,
        0.0,
        0.0,
        0.0,
        0.0,
        0.016167107969522698,
        -0.9998692870140076,
        0.0,
        0.0,
        0.9998692870140076,
        0.016167107969522698,
        0.0,
        0.0,
        -0.14891190826892853,
        -0.008758442476391825,
        1.0
      ],
      "name": "Sketchfab_model"
    },
    {
      "children": [
        2,
        3,
        4,
        5,
        6,
        7,
        8,
        9,
        10,
        11
      ],
      "name": "Plain Jug Sketchfab.obj.cleaner.materialmerger.gles"
    },
    {
      "mesh": 0,
      "name": "Object_2"
    },
    {
      "mesh": 1,
      "name": "Object_3"
    },
    {
      "mesh": 2,
      "name": "Object_4"
    },
    {
      "mesh": 3,
      "name": "Object_5"
    },
    {
      "mesh": 4,
      "name": "Object_6"
    },
    {
      "mesh": 5,
      "name": "Object_7"
    },
    {
      "mesh": 6,
      "name": "Object_8"
    },
    {
      "mesh": 7,
      "name": "Object_9"
    },
    {
      "mesh": 8,
      "name": "Object_10"
    },
    {
      "mesh": 9,
      "name": "Object_11"
    }
  ],
  "scene": 0,
  "scenes": [
    {
      "name": "Sketchfab_Scene",
      "nodes": [
        0
      ]
    }
  ]
}
